<svg xmlns="http://www.w3.org/2000/svg"
xmlns:xlink="http://www.w3.org/1999/xlink"
    width="16" height="192" >
    <style>
        .icon-hover {
        fill: #808d92;
        }
    </style>
    <defs>
        <g id="ut">
            <path fill="#fff" d="M6.6 0h-.9l-.6 2.3L4.5 0h-1c.2.6.4 1.1.6 1.7.3.8.5 1.5.5 1.9V6h.9V3.6L6.6 0zM9 4.5V3c0-.5-.1-.8-.3-1.1s-.5-.4-.9-.4-.7.2-.9.5c-.2.2-.3.5-.3 1v1.6c0 .5.1.8.3 1 .2.3.5.4.9.4s.7-.2.9-.5c.2-.1.3-.5.3-1zm-.8.2c0 .4-.1.6-.4.6s-.4-.2-.4-.6V2.8c0-.4.1-.6.4-.6s.4.2.4.6v1.9zM12 6V1.5h-.8v3.4c-.2.3-.3.4-.5.4-.1 0-.2-.1-.2-.2V1.5h-.8V5c0 .3 0 .5.1.7 0 .2.2.3.5.3s.6-.2.9-.5V6h.8zM12.4 10.5c-.3 0-.4.2-.4.6v.4h.8v-.4c0-.4-.1-.6-.4-.6zM9.5 10.5c-.1 0-.3.1-.4.2v2.7c.1.1.3.2.4.2.2 0 .3-.2.3-.6v-1.9c0-.4-.1-.6-.3-.6z"/><path fill="#fff" d="M14.4 8.3C14.2 7.6 13.6 7 13 7c-1.6-.2-3.3-.2-5-.2s-3.3 0-5 .2c-.6 0-1.2.6-1.4 1.3-.2 1-.2 2.1-.2 3.1s0 2.1.2 3.1c.2.7.7 1.2 1.4 1.3 1.7.2 3.3.2 5 .2s3.3 0 5-.2c.7-.1 1.3-.6 1.4-1.3.2-1 .2-2.1.2-3.1s0-2.1-.2-3.1zm-9.2.9h-1v5.1h-.9V9.2h-.9v-.9h2.8v.9zm2.4 5.1h-.8v-.5c-.3.4-.6.5-.9.5s-.4-.1-.5-.3c0-.1-.1-.3-.1-.7V9.8h.8v3.5c0 .1.1.2.2.2.2 0 .3-.1.5-.4V9.8h.8v4.5zm3-1.4c0 .4 0 .7-.1.9-.1.3-.3.5-.6.5s-.6-.2-.8-.5v.4h-.8V8.3h.8v1.9c.3-.3.5-.5.8-.5s.5.2.6.5c.1.2.1.5.1.9v1.8zm3-.7H12v.8c0 .4.1.6.4.6.2 0 .3-.1.4-.3v-.5h.8v.6c0 .2-.1.3-.2.5-.2.3-.5.5-1 .5-.4 0-.7-.2-1-.5-.2-.2-.3-.6-.3-1v-1.5c0-.5.1-.8.2-1 .2-.3.5-.5 1-.5.4 0 .7.2.9.5.2.2.2.6.2 1v.8z"/>
        </g>
        <g id="ut-hover" class="icon-hover">
            <path fill="#1ec0ff" d="M6.6 0h-.9l-.6 2.3L4.5 0h-1c.2.6.4 1.1.6 1.7.3.8.5 1.5.5 1.9V6h.9V3.6L6.6 0zM9 4.5V3c0-.5-.1-.8-.3-1.1s-.5-.4-.9-.4-.7.2-.9.5c-.2.2-.3.5-.3 1v1.6c0 .5.1.8.3 1 .2.3.5.4.9.4s.7-.2.9-.5c.2-.1.3-.5.3-1zm-.8.2c0 .4-.1.6-.4.6s-.4-.2-.4-.6V2.8c0-.4.1-.6.4-.6s.4.2.4.6v1.9zM12 6V1.5h-.8v3.4c-.2.3-.3.4-.5.4-.1 0-.2-.1-.2-.2V1.5h-.8V5c0 .3 0 .5.1.7 0 .2.2.3.5.3s.6-.2.9-.5V6h.8zM12.4 10.5c-.3 0-.4.2-.4.6v.4h.8v-.4c0-.4-.1-.6-.4-.6zM9.5 10.5c-.1 0-.3.1-.4.2v2.7c.1.1.3.2.4.2.2 0 .3-.2.3-.6v-1.9c0-.4-.1-.6-.3-.6z"/><path fill="#1ec0ff" d="M14.4 8.3C14.2 7.6 13.6 7 13 7c-1.6-.2-3.3-.2-5-.2s-3.3 0-5 .2c-.6 0-1.2.6-1.4 1.3-.2 1-.2 2.1-.2 3.1s0 2.1.2 3.1c.2.7.7 1.2 1.4 1.3 1.7.2 3.3.2 5 .2s3.3 0 5-.2c.7-.1 1.3-.6 1.4-1.3.2-1 .2-2.1.2-3.1s0-2.1-.2-3.1zm-9.2.9h-1v5.1h-.9V9.2h-.9v-.9h2.8v.9zm2.4 5.1h-.8v-.5c-.3.4-.6.5-.9.5s-.4-.1-.5-.3c0-.1-.1-.3-.1-.7V9.8h.8v3.5c0 .1.1.2.2.2.2 0 .3-.1.5-.4V9.8h.8v4.5zm3-1.4c0 .4 0 .7-.1.9-.1.3-.3.5-.6.5s-.6-.2-.8-.5v.4h-.8V8.3h.8v1.9c.3-.3.5-.5.8-.5s.5.2.6.5c.1.2.1.5.1.9v1.8zm3-.7H12v.8c0 .4.1.6.4.6.2 0 .3-.1.4-.3v-.5h.8v.6c0 .2-.1.3-.2.5-.2.3-.5.5-1 .5-.4 0-.7-.2-1-.5-.2-.2-.3-.6-.3-1v-1.5c0-.5.1-.8.2-1 .2-.3.5-.5 1-.5.4 0 .7.2.9.5.2.2.2.6.2 1v.8z"/>
        </g>
        <g id="fb">
            <path d="M9.5 3H12V0H9.5C7.57 0 6 1.57 6 3.5V5H4v3h2v8h3V8h2.5l.5-3H9V3.5c0-.271.229-.5.5-.5z" fill="#fff"/>
        </g>
        <g id="fb-hover" class="icon-hover">
            <path d="M9.5 3H12V0H9.5C7.57 0 6 1.57 6 3.5V5H4v3h2v8h3V8h2.5l.5-3H9V3.5c0-.271.229-.5.5-.5z" fill="#1ec0ff"/>
        </g>
        <g id="tw">
            <path d="M16 3.538a6.461 6.461 0 0 1-1.884.516 3.301 3.301 0 0 0 1.444-1.816 6.607 6.607 0 0 1-2.084.797 3.28 3.28 0 0 0-2.397-1.034 3.28 3.28 0 0 0-3.197 4.028 9.321 9.321 0 0 1-6.766-3.431 3.284 3.284 0 0 0 1.015 4.381A3.301 3.301 0 0 1 .643 6.57v.041A3.283 3.283 0 0 0 3.277 9.83a3.291 3.291 0 0 1-1.485.057 3.293 3.293 0 0 0 3.066 2.281 6.586 6.586 0 0 1-4.862 1.359 9.286 9.286 0 0 0 5.034 1.475c6.037 0 9.341-5.003 9.341-9.341 0-.144-.003-.284-.009-.425a6.59 6.59 0 0 0 1.637-1.697z" fill="#fff"/>
        </g>
        <g id="tw-hover" class="icon-hover">
            <path d="M16 3.538a6.461 6.461 0 0 1-1.884.516 3.301 3.301 0 0 0 1.444-1.816 6.607 6.607 0 0 1-2.084.797 3.28 3.28 0 0 0-2.397-1.034 3.28 3.28 0 0 0-3.197 4.028 9.321 9.321 0 0 1-6.766-3.431 3.284 3.284 0 0 0 1.015 4.381A3.301 3.301 0 0 1 .643 6.57v.041A3.283 3.283 0 0 0 3.277 9.83a3.291 3.291 0 0 1-1.485.057 3.293 3.293 0 0 0 3.066 2.281 6.586 6.586 0 0 1-4.862 1.359 9.286 9.286 0 0 0 5.034 1.475c6.037 0 9.341-5.003 9.341-9.341 0-.144-.003-.284-.009-.425a6.59 6.59 0 0 0 1.637-1.697z" fill="#1ec0ff"/>
        </g>
        <g id="in">
            <path d="M14.5 0h-13C.675 0 0 .675 0 1.5v13c0 .825.675 1.5 1.5 1.5h13c.825 0 1.5-.675 1.5-1.5v-13c0-.825-.675-1.5-1.5-1.5zM6 13H4V6h2v7zM5 5a1 1 0 1 1 0-2 1 1 0 1 1 0 2zm8 8h-2V9a1 1 0 1 0-2 0v4H7V6h2v1.241C9.412 6.675 10.044 6 10.75 6 11.994 6 13 7.119 13 8.5V13z" fill="#fff"/>
        </g>
        <g id="in-hover" class="icon-hover">
            <path d="M14.5 0h-13C.675 0 0 .675 0 1.5v13c0 .825.675 1.5 1.5 1.5h13c.825 0 1.5-.675 1.5-1.5v-13c0-.825-.675-1.5-1.5-1.5zM6 13H4V6h2v7zM5 5a1 1 0 1 1 0-2 1 1 0 1 1 0 2zm8 8h-2V9a1 1 0 1 0-2 0v4H7V6h2v1.241C9.412 6.675 10.044 6 10.75 6 11.994 6 13 7.119 13 8.5V13z" fill="#1ec0ff"/>
        </g>
        <g id="pi">
            <path d="M8 1.069a6.93 6.93 0 0 0-2.525 13.384c-.059-.547-.116-1.391.025-1.988.125-.541.813-3.444.813-3.444s-.206-.416-.206-1.028c0-.963.559-1.684 1.253-1.684.591 0 .878.444.878.975 0 .594-.378 1.484-.575 2.306-.166.691.344 1.253 1.025 1.253 1.231 0 2.178-1.3 2.178-3.175 0-1.659-1.194-2.819-2.894-2.819-1.972 0-3.128 1.478-3.128 3.009 0 .597.228 1.234.516 1.581.056.069.066.128.047.2a95.89 95.89 0 0 1-.194.787c-.031.128-.1.153-.231.094-.866-.403-1.406-1.669-1.406-2.684 0-2.188 1.587-4.194 4.578-4.194 2.403 0 4.272 1.712 4.272 4.003 0 2.388-1.506 4.313-3.597 4.313-.703 0-1.362-.366-1.588-.797 0 0-.347 1.322-.431 1.647-.156.603-.578 1.356-.862 1.816a6.93 6.93 0 0 0 8.984-6.622 6.931 6.931 0 0 0-6.931-6.934z" fill="#fff"/>
        </g>
        <g id="pi-hover" class="icon-hover">
            <path d="M8 1.069a6.93 6.93 0 0 0-2.525 13.384c-.059-.547-.116-1.391.025-1.988.125-.541.813-3.444.813-3.444s-.206-.416-.206-1.028c0-.963.559-1.684 1.253-1.684.591 0 .878.444.878.975 0 .594-.378 1.484-.575 2.306-.166.691.344 1.253 1.025 1.253 1.231 0 2.178-1.3 2.178-3.175 0-1.659-1.194-2.819-2.894-2.819-1.972 0-3.128 1.478-3.128 3.009 0 .597.228 1.234.516 1.581.056.069.066.128.047.2a95.89 95.89 0 0 1-.194.787c-.031.128-.1.153-.231.094-.866-.403-1.406-1.669-1.406-2.684 0-2.188 1.587-4.194 4.578-4.194 2.403 0 4.272 1.712 4.272 4.003 0 2.388-1.506 4.313-3.597 4.313-.703 0-1.362-.366-1.588-.797 0 0-.347 1.322-.431 1.647-.156.603-.578 1.356-.862 1.816a6.93 6.93 0 0 0 8.984-6.622 6.931 6.931 0 0 0-6.931-6.934z" fill="#1ec0ff"/>
        </g>
        <g id="inst">
            <path d="M14.5 0h-13C.675 0 0 .675 0 1.5v13c0 .825.675 1.5 1.5 1.5h13c.825 0 1.5-.675 1.5-1.5v-13c0-.825-.675-1.5-1.5-1.5zM11 2.5c0-.275.225-.5.5-.5h2c.275 0 .5.225.5.5v2c0 .275-.225.5-.5.5h-2a.501.501 0 0 1-.5-.5v-2zM8 5a3.001 3.001 0 0 1 0 6 3.001 3.001 0 0 1 0-6zm6 8.5c0 .275-.225.5-.5.5h-11a.501.501 0 0 1-.5-.5V7h1.1A4.999 4.999 0 0 0 8 13a4.999 4.999 0 0 0 4.9-6H14v6.5z" fill="#fff"/>
        </g>
        <g id="inst-hover" class="icon-hover">
            <path d="M14.5 0h-13C.675 0 0 .675 0 1.5v13c0 .825.675 1.5 1.5 1.5h13c.825 0 1.5-.675 1.5-1.5v-13c0-.825-.675-1.5-1.5-1.5zM11 2.5c0-.275.225-.5.5-.5h2c.275 0 .5.225.5.5v2c0 .275-.225.5-.5.5h-2a.501.501 0 0 1-.5-.5v-2zM8 5a3.001 3.001 0 0 1 0 6 3.001 3.001 0 0 1 0-6zm6 8.5c0 .275-.225.5-.5.5h-11a.501.501 0 0 1-.5-.5V7h1.1A4.999 4.999 0 0 0 8 13a4.999 4.999 0 0 0 4.9-6H14v6.5z" fill="#1ec0ff"/>
        </g>
    </defs>


    <use x="0" y="0" xlink:href="#ut" />
    <use x="0" y="16" xlink:href="#ut-hover" />
    <use x="0" y="32" xlink:href="#fb" />
    <use x="0" y="48" xlink:href="#fb-hover" />
    <use x="0" y="64" xlink:href="#tw" />
    <use x="0" y="80" xlink:href="#tw-hover" />
    <use x="0" y="96" xlink:href="#in" />
    <use x="0" y="112" xlink:href="#in-hover" />
    <use x="0" y="128" xlink:href="#pi" />
    <use x="0" y="144" xlink:href="#pi-hover" />
    <use x="0" y="160" xlink:href="#inst" />
    <use x="0" y="176" xlink:href="#inst-hover" />
</svg>