<svg xmlns="http://www.w3.org/2000/svg" aria-hidden="true" width="1em" height="1em" style="-ms-transform:rotate(360deg);-webkit-transform:rotate(360deg);transform:rotate(360deg)" viewBox="0 0 24 24"><g fill="none" stroke="#1ec0ff" stroke-width="2" stroke-linecap="round" stroke-linejoin="round"><path d="M12.89 1.45l8 4A2 2 0 0 1 22 7.24v9.53a2 2 0 0 1-1.11 1.79l-8 4a2 2 0 0 1-1.79 0l-8-4a2 2 0 0 1-1.1-1.8V7.24a2 2 0 0 1 1.11-1.79l8-4a2 2 0 0 1 1.78 0z"/><path d="M2.32 6.16L12 11l9.68-4.84M12 22.76V11M7 3.5l10 5"/></g></svg>